<svg xmlns="http://www.w3.org/2000/svg" viewBox="0 0 412 892" preserveAspectRatio="xMidYMid slice">
  <defs>
    <radialGradient id="core" cx="50%" cy="38%" r="60%">
      <stop offset="0%"  stop-color="#3a4aa8"/>
      <stop offset="35%" stop-color="#1d2563"/>
      <stop offset="70%" stop-color="#0a0d28"/>
      <stop offset="100%" stop-color="#03040d"/>
    </radialGradient>
    <radialGradient id="cloudMagenta" cx="22%" cy="20%" r="38%">
      <stop offset="0%"  stop-color="#d544a8" stop-opacity="0.45"/>
      <stop offset="60%" stop-color="#d544a8" stop-opacity="0.05"/>
      <stop offset="100%" stop-color="#d544a8" stop-opacity="0"/>
    </radialGradient>
    <radialGradient id="cloudCyan" cx="80%" cy="70%" r="40%">
      <stop offset="0%"  stop-color="#22b8d4" stop-opacity="0.35"/>
      <stop offset="60%" stop-color="#22b8d4" stop-opacity="0.05"/>
      <stop offset="100%" stop-color="#22b8d4" stop-opacity="0"/>
    </radialGradient>
  </defs>
  <rect width="412" height="892" fill="url(#core)"/>
  <rect width="412" height="892" fill="url(#cloudMagenta)"/>
  <rect width="412" height="892" fill="url(#cloudCyan)"/>
  <!-- Distant stars across the whole canvas -->
  <g fill="#ffffff">
    <circle cx="50"  cy="40"  r="0.9" fill-opacity="0.8"/>
    <circle cx="120" cy="90"  r="1.2" fill-opacity="0.9"/>
    <circle cx="220" cy="60"  r="0.8" fill-opacity="0.6"/>
    <circle cx="310" cy="130" r="1.1" fill-opacity="0.85"/>
    <circle cx="370" cy="50"  r="0.7" fill-opacity="0.7"/>
    <circle cx="80"  cy="200" r="1.0" fill-opacity="0.7"/>
    <circle cx="190" cy="240" r="0.7" fill-opacity="0.5"/>
    <circle cx="280" cy="190" r="1.0" fill-opacity="0.75"/>
    <circle cx="40"  cy="340" r="0.8" fill-opacity="0.6"/>
    <circle cx="160" cy="380" r="0.9" fill-opacity="0.7"/>
    <circle cx="250" cy="330" r="0.7" fill-opacity="0.55"/>
    <circle cx="350" cy="420" r="1.1" fill-opacity="0.8"/>
    <circle cx="100" cy="500" r="0.8" fill-opacity="0.6"/>
    <circle cx="230" cy="540" r="0.7" fill-opacity="0.5"/>
    <circle cx="330" cy="610" r="0.9" fill-opacity="0.7"/>
    <circle cx="60"  cy="700" r="0.8" fill-opacity="0.55"/>
    <circle cx="180" cy="740" r="1.0" fill-opacity="0.75"/>
    <circle cx="290" cy="800" r="0.7" fill-opacity="0.5"/>
    <circle cx="380" cy="850" r="0.9" fill-opacity="0.65"/>
  </g>
</svg>
